<?xml version="1.0" encoding="UTF-8"?>
<svg width="148px" height="47px" viewBox="0 0 148 47" version="1.1" xmlns="http://www.w3.org/2000/svg" xmlns:xlink="http://www.w3.org/1999/xlink">
    <!-- Generator: sketchtool 40.2 (33826) - http://www.bohemiancoding.com/sketch -->
    <title>CB8CA560-FA05-49E0-99EB-7D4C337AFE5B</title>
    <desc>Created with sketchtool.</desc>
    <defs></defs>
    <g id="Page-1" stroke="none" stroke-width="1" fill="none" fill-rule="evenodd" opacity="0.800000012">
        <g id="Busulla-R1" transform="translate(-492.000000, -3393.000000)" fill="#CCCCCC">
            <g id="Twitter" transform="translate(0.000000, 2824.000000)">
                <g id="logos" transform="translate(239.000000, 568.000000)">
                    <path d="M330.945017,12.6076944 C330.945017,14.2722778 329.605451,15.6130833 327.942408,15.6130833 C326.279364,15.6130833 324.938495,14.2722778 324.938495,12.6076944 C324.938495,10.9431111 326.232408,9.60230556 327.942408,9.60230556 C329.651104,9.648 330.945017,10.9888056 330.945017,12.6076944 L330.945017,12.6076944 Z M318.562843,18.6654722 L318.562843,19.4057222 C318.562843,19.4057222 317.130669,17.55575 314.082408,17.55575 C309.046321,17.55575 305.11893,21.3940833 305.11893,26.7116111 C305.11893,31.9834444 308.999364,35.8687778 314.082408,35.8687778 C317.177625,35.8687778 318.562843,33.9718056 318.562843,33.9718056 L318.562843,34.7590556 C318.562843,35.1285278 318.840669,35.4066111 319.209799,35.4066111 L322.951973,35.4066111 L322.951973,18.0179167 L319.209799,18.0179167 C318.840669,18.0179167 318.562843,18.3416944 318.562843,18.6654722 L318.562843,18.6654722 Z M318.562843,29.811 C317.870234,30.8280278 316.483712,31.7066667 314.820669,31.7066667 C311.863712,31.7066667 309.600669,29.8566944 309.600669,26.7116111 C309.600669,23.5678333 311.863712,21.7178611 314.820669,21.7178611 C316.43806,21.7178611 317.915886,22.6421944 318.562843,23.6135278 L318.562843,29.811 L318.562843,29.811 Z M325.725017,35.4053056 L330.159799,35.4053056 L330.159799,18.0179167 L325.725017,18.0179167 L325.725017,35.4053056 Z M391.976756,17.55575 C388.928495,17.55575 387.496321,19.4057222 387.496321,19.4057222 L387.496321,9.648 L383.060234,9.648 L383.060234,35.4066111 L386.802408,35.4066111 C387.171538,35.4066111 387.449364,35.0815278 387.449364,34.7590556 L387.449364,33.9718056 C387.449364,33.9718056 388.881538,35.8687778 391.931104,35.8687778 C396.967191,35.8687778 400.894582,31.9834444 400.894582,26.7116111 C400.894582,21.4397778 396.967191,17.55575 391.976756,17.55575 L391.976756,17.55575 Z M391.238495,31.6596667 C389.528495,31.6596667 388.18893,30.7810278 387.496321,29.764 L387.496321,23.5678333 C388.18893,22.6421944 389.666756,21.6721667 391.238495,21.6721667 C394.195451,21.6721667 396.458495,23.5208333 396.458495,26.6659167 C396.458495,29.811 394.195451,31.6596667 391.238495,31.6596667 L391.238495,31.6596667 Z M380.750234,25.0940278 L380.750234,35.4523056 L376.315451,35.4523056 L376.315451,25.6018889 C376.315451,22.7348889 375.390669,21.5794722 372.895451,21.5794722 C371.555886,21.5794722 370.170669,22.2727222 369.292843,23.28975 L369.292843,35.4066111 L364.856756,35.4066111 L364.856756,18.0179167 L368.36806,18.0179167 C368.738495,18.0179167 369.015017,18.3416944 369.015017,18.6654722 L369.015017,19.4057222 C370.30893,18.0649167 372.017625,17.55575 373.727625,17.55575 C375.668495,17.55575 377.284582,18.1106111 378.578495,19.2203333 C380.150234,20.5154444 380.750234,22.1800278 380.750234,25.0940278 L380.750234,25.0940278 Z M354.091973,17.55575 C351.042408,17.55575 349.610234,19.4057222 349.610234,19.4057222 L349.610234,9.648 L345.175451,9.648 L345.175451,35.4066111 L348.917625,35.4066111 C349.286756,35.4066111 349.564582,35.0815278 349.564582,34.7590556 L349.564582,33.9718056 C349.564582,33.9718056 350.996756,35.8687778 354.046321,35.8687778 C359.082408,35.8687778 363.009799,31.9834444 363.009799,26.7116111 C363.055451,21.4397778 359.12806,17.55575 354.091973,17.55575 L354.091973,17.55575 Z M353.352408,31.6596667 C351.643712,31.6596667 350.304147,30.7810278 349.610234,29.764 L349.610234,23.5678333 C350.304147,22.6421944 351.781973,21.6721667 353.352408,21.6721667 C356.309364,21.6721667 358.573712,23.5208333 358.573712,26.6659167 C358.573712,29.811 356.309364,31.6596667 353.352408,31.6596667 L353.352408,31.6596667 Z M341.340669,17.55575 C342.680234,17.55575 343.374147,17.7868333 343.374147,17.7868333 L343.374147,21.90325 C343.374147,21.90325 339.677625,20.6538333 337.367625,23.28975 L337.367625,35.4523056 L332.931538,35.4523056 L332.931538,18.0179167 L336.673712,18.0179167 C337.044147,18.0179167 337.320669,18.3416944 337.320669,18.6654722 L337.320669,19.4057222 C338.152843,18.4343889 339.954147,17.55575 341.340669,17.55575 L341.340669,17.55575 Z M295.277625,33.8334167 C295.046756,33.2785556 294.815886,32.678 294.585017,32.1688333 C294.215886,31.3371944 293.845451,30.5499444 293.521973,29.811 L293.476321,29.764 C290.288495,22.8275833 286.868495,15.7984722 283.265886,8.86205556 L283.126321,8.58397222 C282.757191,7.89072222 282.38806,7.15047222 282.017625,6.41152778 C281.555886,5.57858333 281.094147,4.69994444 280.354582,3.867 C278.876756,2.01833333 276.750669,1 274.487625,1 C272.177625,1 270.098495,2.01833333 268.573712,3.77561111 C267.879799,4.60725 267.372408,5.48588889 266.910669,6.31883333 C266.540234,7.05777778 266.171104,7.79802778 265.801973,8.49258333 L265.662408,8.76936111 C262.105451,15.7057778 258.639799,22.7348889 255.451973,29.6713056 L255.406321,29.764 C255.082843,30.50425 254.712408,31.2901944 254.343278,32.1231389 C254.112408,32.631 253.881538,33.1858611 253.650669,33.7877222 C253.049364,35.498 252.865451,37.1168889 253.096321,38.7814722 C253.603712,42.2503333 255.913712,45.1630278 259.101538,46.4581389 C260.302843,46.9673056 261.551104,47.1983889 262.843712,47.1983889 C263.214147,47.1983889 263.675886,47.1513889 264.045017,47.1056944 C265.569799,46.9203056 267.141538,46.4124444 268.666321,45.5338056 C270.560234,44.4697778 272.361538,42.9435833 274.395017,40.7241389 C276.427191,42.9435833 278.275451,44.4697778 280.123712,45.5338056 C281.648495,46.4124444 283.21893,46.9203056 284.743712,47.1056944 C285.112843,47.1513889 285.575886,47.1983889 285.945017,47.1983889 C287.23893,47.1983889 288.532843,46.9673056 289.687191,46.4581389 C292.921973,45.1630278 295.185017,42.2033333 295.693712,38.7814722 C296.062843,37.1625833 295.87893,35.545 295.277625,33.8334167 L295.277625,33.8334167 Z M274.440669,36.23825 C271.945451,33.0931667 270.329364,30.1347778 269.775017,27.63725 C269.544147,26.5732222 269.497191,25.6488889 269.635451,24.8159444 C269.72806,24.077 270.005886,23.4281389 270.375017,22.8745833 C271.252843,21.6251667 272.731973,20.8392222 274.440669,20.8392222 C276.150669,20.8392222 277.675451,21.5794722 278.506321,22.8745833 C278.876756,23.4281389 279.153278,24.077 279.245886,24.8159444 C279.384147,25.6488889 279.338495,26.6189167 279.107625,27.63725 C278.553278,30.0877778 276.935886,33.0474722 274.440669,36.23825 L274.440669,36.23825 Z M292.875017,38.412 C292.551538,40.8168333 290.935451,42.8978889 288.671104,43.8222222 C287.562408,44.2843889 286.361104,44.4240833 285.159799,44.2843889 C284.004147,44.146 282.849799,43.7765278 281.648495,43.0819722 C279.985451,42.1576389 278.322408,40.7241389 276.381538,38.5973889 C279.431104,34.8504444 281.279364,31.4285833 281.971973,28.3775 C282.295451,26.944 282.341104,25.6488889 282.202843,24.4464722 C282.017625,23.28975 281.601538,22.2270278 280.955886,21.3013889 C279.523712,19.2203333 277.121104,18.0179167 274.440669,18.0179167 C271.761538,18.0179167 269.35893,19.2673333 267.926756,21.3013889 C267.279799,22.2270278 266.863712,23.28975 266.679799,24.4464722 C266.494582,25.6488889 266.540234,26.9896944 266.910669,28.3775 C267.603278,31.4285833 269.497191,34.8974444 272.501104,38.6430833 C270.605886,40.7698333 268.897191,42.2033333 267.234147,43.1289722 C266.032843,43.8222222 264.877191,44.193 263.722843,44.3313889 C262.474582,44.4697778 261.273278,44.2843889 260.211538,43.8692222 C257.947191,42.9435833 256.329799,40.8625278 256.006321,38.4576944 C255.86806,37.3022778 255.960669,36.1455556 256.422408,34.8504444 C256.561973,34.3882778 256.791538,33.9261111 257.023712,33.37125 C257.347191,32.631 257.716321,31.8450556 258.085451,31.0591111 L258.132408,30.9664167 C261.320234,24.077 264.73893,17.0465833 268.295886,10.2028611 L268.435451,9.92608333 C268.804582,9.23152778 269.173712,8.49258333 269.544147,7.79802778 C269.913278,7.05777778 270.329364,6.36452778 270.836756,5.76397222 C271.807191,4.65425 273.101104,4.05238889 274.533278,4.05238889 C275.965451,4.05238889 277.259364,4.65425 278.229799,5.76397222 C278.737191,6.36452778 279.153278,7.05777778 279.523712,7.79802778 C279.892843,8.49258333 280.261973,9.23152778 280.632408,9.92608333 L280.770669,10.2028611 C284.281973,17.0935833 287.700669,24.1226944 290.888495,31.0134167 L290.888495,31.0591111 C291.257625,31.7993611 291.581104,32.631 291.951538,33.37125 C292.182408,33.9261111 292.413278,34.3882778 292.551538,34.8504444 C292.921973,36.0528611 293.060234,37.2095833 292.875017,38.412 L292.875017,38.412 Z" id="Fill-2"></path>
                </g>
            </g>
        </g>
    </g>
</svg>