<?xml version="1.0" encoding="UTF-8"?>
<svg width="86px" height="40px" viewBox="0 0 86 40" version="1.1" xmlns="http://www.w3.org/2000/svg" xmlns:xlink="http://www.w3.org/1999/xlink">
    <!-- Generator: sketchtool 40.2 (33826) - http://www.bohemiancoding.com/sketch -->
    <title>0A902BBF-826C-4231-8957-FB5DCA36E3C7</title>
    <desc>Created with sketchtool.</desc>
    <defs></defs>
    <g id="Page-1" stroke="none" stroke-width="1" fill="none" fill-rule="evenodd" opacity="0.2">
        <g id="Busulla-R1" transform="translate(-239.000000, -3396.000000)" fill="#000000">
            <g id="Twitter" transform="translate(0.000000, 2824.000000)">
                <g id="logos" transform="translate(239.000000, 568.000000)">
                    <path d="M35.0514651,43.9825735 C31.524647,43.7348409 28.5367224,40.8042172 28.5367224,36.671827 L28.5367224,17.0113479 C28.5367224,16.2997756 28.0031644,15.6883505 27.2241698,15.6883505 L21.0082195,15.6883505 C7.55188771,15.6725378 8.74705754,32.6606676 20.202547,32.6817512 L27.0747736,32.6817512 L27.0747736,37.6205901 L19.9517748,37.6205901 C15.3898542,37.6205901 12.0070967,35.9391711 9.72346862,33.4302198 C7.43984054,30.9212686 6.29269092,27.5426179 6.28735534,24.174509 C6.28201976,20.8064001 7.41316264,17.4488331 9.75014651,14.9398818 C12.0871304,12.4362015 15.6192841,10.7495116 20.4586548,10.7495116 L32.1809233,10.7495116 C32.9545823,10.7495116 33.5948519,11.4083749 33.5948519,12.1726562 L33.5948519,36.1500073 C33.5895163,37.3833993 34.2938128,38.3427042 35.2115325,38.6220622 C36.1292522,38.9014202 37.2070393,38.5482695 37.8366377,37.6469446 L37.8633156,37.6205901 C41.1980528,32.2337242 54.4356259,11.2555186 54.4569682,11.2186222 C54.8197876,10.7073444 55.2519696,10.617739 55.5667688,10.7178862 C55.881568,10.8233043 56.2017027,11.1606423 56.1963671,11.9934454 L56.1963671,36.1500073 C56.1910316,37.3833993 56.8953281,38.3427042 57.8130478,38.6220622 C58.7307675,38.9014202 59.7818767,38.5482695 60.4168106,37.6469446 L60.4168106,37.6205901 L60.4648308,37.6205901 C63.7995681,32.2337242 77.0371412,11.2555186 77.0584835,11.2186222 C77.4159673,10.7126153 77.8374781,10.6124681 78.168284,10.7178862 C78.49909,10.8233043 78.8298959,11.1395587 78.8245603,11.9670909 L78.8245603,43.8560718 L73.7984443,43.8560718 L73.7984443,25.2445029 C73.7984443,25.2445029 70.7998486,30.3045726 65.667021,39.0173801 C60.6355694,47.5509768 51.1435732,44.0194699 51.1435732,36.671827 L51.1435732,25.2445029 C51.1435732,25.2445029 48.1983333,30.3045726 43.0601701,39.0173801 C40.8619113,42.7491815 37.793953,44.177597 35.0514651,43.9825735 L35.0514651,43.9825735 Z M20.8321454,43.8560718 C-7.14229858,43.8560718 -6.87018402,4.47713356 21.2109715,4.45604993 L32.19693,4.45604993 C36.918918,4.45604993 39.9335205,7.21800464 39.9281849,12.3149707 L39.9281849,22.2980665 C39.9281849,22.2980665 46.0961149,12.2253653 48.5184681,8.27745673 C52.6268644,1.56759348 62.5617136,2.89059087 62.5350357,11.2713313 L62.5350357,22.2980665 C62.5350357,22.2980665 68.6816235,12.2253653 71.098641,8.27745673 C75.2070374,1.56759348 85.1685645,2.89059087 85.1418866,11.2713313 L85.1418866,43.8613427 L80.1157706,43.8613427 L80.1157706,11.9723618 C80.1211062,10.7495116 79.4701655,9.8429158 78.5737881,9.55301597 C77.6774107,9.26311614 76.6476439,9.62680865 76.023381,10.501779 L75.9967031,10.501779 L75.9967031,10.5492172 C75.9967031,10.5492172 62.7537945,31.4694428 59.3763726,36.9248305 C59.3657014,36.9353723 59.3603659,36.9142887 59.3496947,36.9248305 C59.3443591,36.9248305 59.3550303,36.951185 59.3496947,36.951185 C59.002882,37.4097538 58.5546933,37.509901 58.1865383,37.399212 C57.8077122,37.2832521 57.4502284,36.9617268 57.4555639,36.1500073 L57.4555639,11.9987163 C57.4608995,10.7811371 56.8259655,9.82183217 55.9402593,9.52666144 C55.0545531,9.23149071 54.0354574,9.62153775 53.4165302,10.501779 L53.4165302,10.5281336 L53.3898523,10.5281336 C53.3898523,10.5281336 40.1362725,31.4905265 36.7695217,36.9301014 C36.4173735,37.4255665 35.9638492,37.5467974 35.5850231,37.4308374 C35.2061969,37.3148775 34.8487131,36.9933523 34.8540486,36.1816327 L34.8540486,36.1552782 L34.8540486,12.1779271 C34.8540486,10.7231571 33.6428721,9.50557782 32.1755877,9.50557782 L20.4533192,9.50557782 C15.3098205,9.50557782 11.4095118,11.3345822 8.83242682,14.0965369 C6.25534186,16.8584916 4.98547391,20.5217712 4.99080949,24.1797799 C4.99614507,27.8325177 6.26601302,31.5221519 8.77907102,34.2841066 C11.292129,37.0460613 15.0643838,38.8697948 19.9411036,38.8750657 L27.0641024,38.8750657 L27.0641024,43.8666136 L20.8268098,43.8666136 L20.8321454,43.8560718 Z" id="logo"></path>
                </g>
            </g>
        </g>
    </g>
</svg>