<?xml version="1.0" encoding="UTF-8"?>
<svg width="66px" height="48px" viewBox="0 0 66 48" version="1.1" xmlns="http://www.w3.org/2000/svg" xmlns:xlink="http://www.w3.org/1999/xlink">
    <!-- Generator: sketchtool 40.2 (33826) - http://www.bohemiancoding.com/sketch -->
    <title>35465C16-2F0F-4AC2-9C8C-043AD4417700</title>
    <desc>Created with sketchtool.</desc>
    <defs></defs>
    <g id="Page-1" stroke="none" stroke-width="1" fill="none" fill-rule="evenodd" opacity="0.2">
        <g id="Busulla-R1" transform="translate(-820.000000, -3392.000000)" fill="#000000">
            <g id="Twitter" transform="translate(0.000000, 2824.000000)">
                <g id="logos" transform="translate(239.000000, 568.000000)">
                    <path d="M592.452198,40.6165286 C592.211171,39.4447662 591.252587,39.1338807 590.179492,39.0344934 C586.713659,38.7125648 586.09909,41.3091192 586.09909,42.4055008 C586.09909,44.2811368 586.64548,45.8319635 590.048176,45.8319635 C590.675709,45.8319635 592.408265,45.1845054 592.408265,44.132776 L597.301772,44.132776 C597.104437,47.2526744 591.871238,48 589.58893,48 C584.859869,48 580.811155,47.1175172 581.006809,42.4475124 C581.146527,39.1141953 584.288752,36.7749917 590.539351,36.9211919 C594.02367,37.0023343 597.370191,38.0910338 597.384595,40.6165286 L592.452198,40.6165286 Z M641.466002,40.6165286 C641.224976,39.4447662 640.266152,39.1338807 639.193297,39.0344934 C635.727224,38.7123247 635.113135,41.3091192 635.113135,42.4052607 C635.113135,44.2808968 635.659285,45.8317235 639.062461,45.8317235 C639.689274,45.8317235 641.42135,45.1842653 641.42135,44.132536 L646.315577,44.132536 C646.119203,47.2524343 640.885043,47.9997599 638.602495,47.9997599 C633.873434,47.9997599 629.82472,47.1172771 630.020614,42.4472723 C630.160332,39.1139552 633.303277,36.7747517 639.552436,36.9209519 C643.037235,37.0020942 646.383995,38.0907937 646.39864,40.6162886 L641.466002,40.6162886 L641.466002,40.6165286 Z M598.258195,37.1442133 L604.610823,37.1442133 L610.031034,44.761509 L610.074966,44.761509 L610.074966,37.1442133 L614.146486,37.1442133 L614.146486,47.7212833 L608.060332,47.7212833 L602.374127,40.1039876 L602.329475,40.1039876 L602.329475,47.7212833 L598.257955,47.7212833 L598.257955,37.1442133 L598.258195,37.1442133 Z M615.402992,37.1442133 L623.119435,37.1442133 C626.827735,37.1442133 629.008975,38.182739 629.008975,39.7515707 C629.008975,40.6779855 628.096004,41.8221403 626.060244,42.1587129 L626.060244,42.188241 C628.511558,42.3344413 629.416367,43.8879087 629.416367,44.8191249 C629.416367,46.6834778 627.289622,47.7210433 623.141761,47.7210433 L615.402992,47.7210433 L615.402992,37.1442133 L615.402992,37.1442133 Z M619.869901,41.253904 L621.148973,41.253904 C623.119195,41.253904 624.164442,41.1000216 624.164442,40.2794759 C624.164442,39.4008342 623.294683,39.1072334 621.521315,39.1072334 L619.869901,39.1072334 L619.869901,41.253904 L619.869901,41.253904 Z M619.869901,45.5047535 L621.148973,45.5047535 C623.523466,45.5047535 624.394666,45.2553249 624.394666,44.4352593 C624.394666,43.5561374 623.294683,43.2625366 621.521315,43.2625366 L619.869901,43.2625366 L619.869901,45.5047535 L619.869901,45.5047535 Z M635.653763,20.932313 L617.465399,33.0957395 L623.590925,18.5357337 L626.496924,11.7553082 C627.674208,9.5639853 629.890738,8.16704097 632.309163,8.12839034 C634.625801,8.12839034 636.680526,9.2437372 637.983124,11.2430072 C639.324133,13.2422773 639.399034,16.5107765 638.058265,18.5359737 C637.45762,19.4837545 636.568175,20.3297472 635.653763,20.932313 Z M626.597512,9.44851354 L617.603437,30.7114035 L617.202527,28.3918853 L614.496983,10.9606896 C614.383911,9.89671685 614.822032,8.99983009 615.673306,8.41022788 L616.964141,7.64129633 C617.039522,7.37194222 616.663579,7.28239758 616.48785,7.19261288 L613.957794,7.16716588 C613.79551,4.65463462 614.897413,2.37400716 617.026559,1.00250983 C618.680374,-0.0746665266 621.198186,-0.356264001 623.039493,0.515175754 C625.432231,1.48936378 627.097569,4.04006554 627.13526,6.6416613 C627.123016,7.60288576 626.960252,8.58979728 626.597512,9.44851354 Z M609.323799,30.7889448 L600.467763,9.4742006 C599.515421,7.19261288 599.916091,4.19346774 601.544699,2.3475999 C603.285658,0.412187419 605.740814,-0.408118267 608.27135,0.246061714 C610.413219,0.771326227 612.41729,2.82197041 612.943755,5.01353336 C613.194144,5.83407912 613.156214,6.82051051 613.10652,7.71787739 L609.323799,30.7889448 Z M590.396752,20.1633815 C588.580412,18.5871078 587.766348,16.4848494 588.028981,14.0493793 C588.291853,11.5887024 590.233987,9.17915943 592.551105,8.43591494 C594.93112,7.69243039 597.523593,8.28203261 599.252789,10.0635628 C599.979228,10.7559132 600.429832,11.5759789 600.805536,12.4217315 L609.36173,33.13391 L590.396752,20.1633815 Z M588.452697,35.2945044 C586.085886,35.0263506 584.261624,33.7503996 583.149158,31.5804426 C582.022528,29.3898399 582.315169,26.2814647 583.829985,24.3388502 C585.480439,22.3609461 587.868857,21.3658723 590.275279,21.8541666 C591.255948,22.0123702 592.078415,22.4344063 592.851667,22.9203 L611.264253,35.2993057 L588.452697,35.2945044 Z M638.44045,35.2945044 C640.808221,35.0263506 642.631283,33.7503996 643.744469,31.5804426 C644.871099,29.3898399 644.578219,26.2814647 643.063642,24.3388502 C641.412708,22.3609461 639.024291,21.3658723 636.617388,21.8541666 C635.636959,22.0123702 634.814973,22.4344063 634.04148,22.9203 L615.629614,35.2993057 L638.44045,35.2945044 Z" id="logo"></path>
                </g>
            </g>
        </g>
    </g>
</svg>