<?xml version="1.0" encoding="UTF-8"?>
<svg width="136px" height="40px" viewBox="0 0 136 40" version="1.1" xmlns="http://www.w3.org/2000/svg" xmlns:xlink="http://www.w3.org/1999/xlink">
    <!-- Generator: sketchtool 40.2 (33826) - http://www.bohemiancoding.com/sketch -->
    <title>11C4CEFF-88AA-4428-A663-745CA16295A6</title>
    <desc>Created with sketchtool.</desc>
    <defs></defs>
    <g id="Page-1" stroke="none" stroke-width="1" fill="none" fill-rule="evenodd" opacity="0.2">
        <g id="Busulla-R1" transform="translate(-1066.000000, -3396.000000)" fill="#000000">
            <g id="Twitter" transform="translate(0.000000, 2824.000000)">
                <g id="logos" transform="translate(239.000000, 568.000000)">
                    <path d="M827,4.09468349 L861.810915,4.09468349 L861.810915,11.998092 L861.239833,11.998092 L861.261234,6.92310444 L847.554809,6.92310444 L847.554809,42.7987678 L851.549991,42.7987678 L851.549991,43.9595349 L837.890796,43.9595349 L837.895224,42.7987678 L841.562043,42.7987678 L841.562043,6.92310444 L827.632909,6.92310444 L827.632909,11.998092 L827,11.998092 L827,4.09468349 Z M863.508532,4.06169134 L877.194717,4.06169134 L877.194717,5.1955083 L873.280521,5.1955083 L873.280521,42.825718 L877.194717,42.825718 L877.194717,43.9595349 L863.508779,43.9595349 L863.535626,42.825718 L867.476717,42.825718 L867.476717,5.1955083 L863.508532,5.1955083 L863.508532,4.06169134 Z M889.249039,4 L891.918947,4 L904.733877,34.7422439 L917.377104,4 L919.986561,4 L927.114089,42.7985293 L930.724289,42.7985293 L930.724289,44 L916.508393,44 L916.515651,42.7985293 L920.218778,42.7985293 L915.729182,18.0175296 L904.451663,44 L901.852827,44 L890.621735,18.0175296 L885.930784,42.7985293 L889.382335,42.7985293 L889.302733,44 L878.897287,44 L878.923752,42.7985293 L882.116256,42.7985293 L889.249039,4 Z M931.874642,4.08649508 L962.000227,4.08649508 L962.07145,11.9612044 L961.54515,11.9414091 L961.289719,7.12908675 L941.561685,6.89774421 L941.561685,22.6225976 L958.321856,22.6225976 L958.776075,18.9430587 L959.50982,18.9430587 C959.2832,22.2509391 959.290577,25.5587399 959.50982,28.8666203 L958.776075,28.8666203 L958.321856,25.0756236 L941.561685,25.0756236 L941.561685,41.3353473 L961.97815,41.3446487 L962.065154,35.9794097 L962.668973,35.9887906 L962.668973,43.9782967 L931.874642,43.9782967 L931.874642,42.8385968 L935.863424,42.8109311 L935.863424,5.30259366 L931.874642,5.19049985 L931.874642,4.08649508 Z" id="logo"></path>
                </g>
            </g>
        </g>
    </g>
</svg>