<?xml version="1.0" encoding="UTF-8"?>
<svg width="24px" height="24px" viewBox="0 0 24 24" version="1.1" xmlns="http://www.w3.org/2000/svg" xmlns:xlink="http://www.w3.org/1999/xlink">
    <!-- Generator: sketchtool 40.2 (33826) - http://www.bohemiancoding.com/sketch -->
    <title>4B448B92-05BC-48ED-AB0E-DC71DE80426D</title>
    <desc>Created with sketchtool.</desc>
    <defs></defs>
    <g id="Page-1" stroke="none" stroke-width="1" fill="none" fill-rule="evenodd" opacity="0.719999969">
        <g id="Busulla-R1" transform="translate(-1162.000000, -4410.000000)" fill="#000000">
            <g id="Footer" transform="translate(1.000000, 4334.000000)">
                <g id="Buttons" transform="translate(1161.000000, 76.000000)">
                    <path d="M20.4,24 L20,24 L20,23.9751537 C19.8367151,23.9917179 19.6700484,24 19.5,24 L16.5625,24 L16.5625,14.703125 L19.671875,14.703125 L20.140625,11.078125 L16.5625,11.078125 L16.5625,8.765625 C16.5625,8.18228875 16.6848946,7.74479313 16.9296875,7.453125 C17.1744804,7.16145688 17.6510381,7.015625 18.359375,7.015625 L20.265625,7 L20.265625,3.765625 C19.6093717,3.67187453 18.6822977,3.625 17.484375,3.625 C16.0677013,3.625 14.9349001,4.0416625 14.0859375,4.875 C13.2369749,5.7083375 12.8125,6.88540906 12.8125,8.40625 L12.8125,11.078125 L9.6875,11.078125 L9.6875,14.703125 L12.8125,14.703125 L12.8125,24 L9,24 L9,0 L19.5,0 C19.6700484,0 19.8367151,0.00828210325 20,0.0248463438 L20,0 L20.4,0 L20.4,24 L20.4,24 Z M0,1.80390072 C0,0.807633862 0.806610441,0 1.79965349,0 L9,0 L9,24 L1.79965349,24 C0.80573231,24 0,23.1946144 0,22.1960993 L0,1.80390072 Z M20.4,0 L22.2,0 C23.1941125,0 24,0.805385644 24,1.80390072 L24,22.1960993 C24,23.1923661 23.1920897,24 22.2,24 L20.4,24 L20.4,0 Z" id="Facebook"></path>
                </g>
            </g>
        </g>
    </g>
</svg>