<?xml version="1.0" encoding="UTF-8"?>
<svg width="38px" height="33px" viewBox="0 0 38 33" version="1.1" xmlns="http://www.w3.org/2000/svg" xmlns:xlink="http://www.w3.org/1999/xlink">
    <!-- Generator: sketchtool 40.2 (33826) - http://www.bohemiancoding.com/sketch -->
    <title>50DD5D74-CC40-46FC-8154-AD500D29D067</title>
    <desc>Created with sketchtool.</desc>
    <defs></defs>
    <g id="Page-1" stroke="none" stroke-width="1" fill="none" fill-rule="evenodd">
        <g id="Busulla-R1" transform="translate(-701.000000, -2952.000000)" fill="#5AA8DF">
            <g id="Twitter" transform="translate(0.000000, 2824.000000)">
                <path d="M727.080446,128.001032 C722.812436,127.929991 719.351881,131.536496 719.351881,136.056044 C719.351881,136.697477 719.420252,137.322967 719.552097,137.923421 C713.128986,137.506794 707.434224,134.162096 703.622585,129.120358 C702.957333,130.328472 702.576113,131.740494 702.576113,133.253077 C702.576113,136.116526 703.94052,138.657816 706.014253,140.158299 C704.747411,140.10237 703.555721,139.718867 702.513769,139.089722 C702.513015,139.124111 702.513015,139.158507 702.513015,139.193506 C702.513015,143.192323 705.177038,146.547021 708.712555,147.328494 C708.064066,147.512251 707.381298,147.608419 706.676492,147.603745 C706.178495,147.600443 705.694247,147.545218 705.22243,147.446059 C706.205805,150.725495 709.059873,153.118531 712.441885,153.197656 C709.796886,155.393269 706.464598,156.700907 702.84357,156.693438 C702.219755,156.692151 701.604603,156.651841 701,156.57429 C704.420247,158.921066 708.48258,160.287424 712.847026,160.288569 C727.062365,160.292299 734.836134,147.921477 734.836134,137.1913 C734.836134,136.839254 734.828412,136.489091 734.81372,136.140619 C736.323722,135.015469 737.633885,133.604781 738.669998,131.993903 C737.284119,132.61863 735.794459,133.033545 734.231342,133.20759 C735.826855,132.225636 737.052448,130.654053 737.629364,128.769442 C736.135937,129.675095 734.482036,130.324568 732.721529,130.661746 C731.311917,129.059121 729.303353,128.038032 727.080446,128.001032 Z" id="Shape"></path>
            </g>
        </g>
    </g>
</svg>