<?xml version="1.0" encoding="UTF-8"?>
<svg width="30px" height="24px" viewBox="0 0 30 24" version="1.1" xmlns="http://www.w3.org/2000/svg" xmlns:xlink="http://www.w3.org/1999/xlink">
    <!-- Generator: sketchtool 40.2 (33826) - http://www.bohemiancoding.com/sketch -->
    <title>B60F91C7-487F-4718-A0C4-9968B1C02925</title>
    <desc>Created with sketchtool.</desc>
    <defs></defs>
    <g id="Page-1" stroke="none" stroke-width="1" fill="none" fill-rule="evenodd" opacity="0.719999969">
        <g id="Busulla-R1" transform="translate(-1209.000000, -4410.000000)" fill="#000000">
            <g id="Footer" transform="translate(1.000000, 4334.000000)">
                <g id="Buttons" transform="translate(1161.000000, 76.000000)">
                    <path d="M76.55,2.85 C75.7124958,4.07500613 74.7000059,5.11874569 73.5125,5.98125 C73.5250001,6.15625087 73.53125,6.41874825 73.53125,6.76875 C73.53125,8.39375813 73.2937524,10.0156169 72.81875,11.634375 C72.3437476,13.2531331 71.6218798,14.8062426 70.653125,16.29375 C69.6843702,17.7812574 68.5312567,19.0968693 67.19375,20.240625 C65.8562433,21.3843807 64.2437594,22.2968716 62.35625,22.978125 C60.4687406,23.6593784 58.4500108,24 56.3,24 C52.9124831,24 49.8125141,23.0937591 47,21.28125 C47.4375022,21.3312503 47.9249973,21.35625 48.4625,21.35625 C51.2750141,21.35625 53.781239,20.4937586 55.98125,18.76875 C54.6687434,18.7437499 53.4937552,18.3406289 52.45625,17.559375 C51.4187448,16.7781211 50.7062519,15.7812561 50.31875,14.56875 C50.7312521,14.6312503 51.1124983,14.6625 51.4625,14.6625 C52.0000027,14.6625 52.5312474,14.5937507 53.05625,14.45625 C51.656243,14.1687486 50.4968796,13.4718805 49.578125,12.365625 C48.6593704,11.2593695 48.2,9.97500731 48.2,8.5125 L48.2,8.4375 C49.0500043,8.91250238 49.9624951,9.16874981 50.9375,9.20625 C50.1124959,8.65624725 49.4562524,7.93750444 48.96875,7.05 C48.4812476,6.16249556 48.2375,5.20000519 48.2375,4.1625 C48.2375,3.0624945 48.5124973,2.04375469 49.0625,1.10625 C50.5750076,2.96875931 52.4156142,4.45936941 54.584375,5.578125 C56.7531358,6.69688059 59.0749876,7.31874938 61.55,7.44375 C61.4499995,6.96874763 61.4,6.50625225 61.4,6.05625 C61.4,4.38124162 61.9906191,2.95313091 63.171875,1.771875 C64.3531309,0.590619094 65.7812416,0 67.45625,0 C69.2062588,0 70.681244,0.637493625 71.88125,1.9125 C73.2437568,1.64999869 74.524994,1.16250356 75.725,0.45 C75.2624977,1.88750719 74.3750066,2.99999606 73.0625,3.7875 C74.2250058,3.66249938 75.3874942,3.3500025 76.55,2.85 L76.55,2.85 Z" id="Twitter"></path>
                </g>
            </g>
        </g>
    </g>
</svg>