<?xml version="1.0" encoding="UTF-8"?>
<svg width="32px" height="22px" viewBox="0 0 32 22" version="1.1" xmlns="http://www.w3.org/2000/svg" xmlns:xlink="http://www.w3.org/1999/xlink">
    <!-- Generator: sketchtool 40.2 (33826) - http://www.bohemiancoding.com/sketch -->
    <title>401F4734-DC8E-45CC-96BC-AFB64FCCD088</title>
    <desc>Created with sketchtool.</desc>
    <defs></defs>
    <g id="Page-1" stroke="none" stroke-width="1" fill="none" fill-rule="evenodd" opacity="0.719999969">
        <g id="Busulla-R1" transform="translate(-1260.000000, -4411.000000)" fill="#000000">
            <g id="Footer" transform="translate(1.000000, 4334.000000)">
                <g id="Buttons" transform="translate(1161.000000, 76.000000)">
                    <path d="M120.288055,11.9214016 C120.288055,11.5004705 120.117447,11.1933091 119.776225,10.9999083 L111.041003,5.53920754 C110.688408,5.3116772 110.318757,5.30030086 109.93204,5.50507816 C109.556696,5.70985547 109.369027,6.02839316 109.369027,6.4607008 L109.369027,17.3821024 C109.369027,17.8144101 109.556696,18.1329477 109.93204,18.3377251 C110.114024,18.4287372 110.290319,18.4742426 110.46093,18.4742426 C110.688411,18.4742426 110.881767,18.4173608 111.041003,18.3035957 L119.776225,12.8428949 C120.117447,12.6494941 120.288055,12.3423327 120.288055,11.9214016 L120.288055,11.9214016 Z M129.023277,11.9214016 C129.023277,13.0135472 129.01759,13.8667732 129.006216,14.4811051 C128.994842,15.095437 128.946503,15.8718727 128.861197,16.8104353 C128.775892,17.7489979 128.647936,18.5880035 128.477325,19.3274771 C128.295341,20.1579628 127.902942,20.8576081 127.300118,21.4264339 C126.697293,21.9952598 125.992113,22.3251738 125.184556,22.416186 C122.659518,22.7005989 118.843584,22.8428032 113.736638,22.8428032 C108.629693,22.8428032 104.813758,22.7005989 102.288721,22.416186 C101.481163,22.3251738 100.77314,21.9952598 100.164629,21.4264339 C99.5561172,20.8576081 99.1608751,20.1579628 98.9788904,19.3274771 C98.8196538,18.5880035 98.6973846,17.7489979 98.6120793,16.8104353 C98.526774,15.8718727 98.478435,15.095437 98.467061,14.4811051 C98.4556869,13.8667732 98.45,13.0135472 98.45,11.9214016 C98.45,10.829256 98.4556869,9.97603002 98.467061,9.3616981 C98.478435,8.74736619 98.526774,7.97093056 98.6120793,7.03236792 C98.6973846,6.09380528 98.8253407,5.25479974 98.9959514,4.51532614 C99.1779361,3.68484041 99.5703347,2.98519512 100.173159,2.41636927 C100.775983,1.84754343 101.481163,1.51762939 102.288721,1.42661725 C104.813758,1.14220433 108.629693,1 113.736638,1 C118.843584,1 122.659518,1.14220433 125.184556,1.42661725 C125.992113,1.51762939 126.700137,1.84754343 127.308648,2.41636927 C127.91716,2.98519512 128.312402,3.68484041 128.494386,4.51532614 C128.653623,5.25479974 128.775892,6.09380528 128.861197,7.03236792 C128.946503,7.97093056 128.994842,8.74736619 129.006216,9.3616981 C129.01759,9.97603002 129.023277,10.829256 129.023277,11.9214016 L129.023277,11.9214016 Z" id="Youtube"></path>
                </g>
            </g>
        </g>
    </g>
</svg>